<?xml version="1.0" encoding="UTF-8" standalone="no"?> <svg fill="#48cae4" id="Layer_1" data-name="Layer 1" xmlns="http://www.w3.org/2000/svg" viewBox="0 0 64 64"><defs><style>.cls-1{fill:#48cae4;}</style></defs><path class="cls-1" d="M55.844,17.066c-1.4-.027-2.809,0-4.213,0H47.624a3.717,3.717,0,0,0-3.556-2.638c-.666,0-1.331,0-2,0h-18.8a6.9,6.9,0,0,0-3.658.514,3.679,3.679,0,0,0-1.63,2.124H10.213a3.3,3.3,0,0,0-1.354.263A2.857,2.857,0,0,0,10.07,22.79c.08,0,.161,0,.241,0q.5,2.744,1.007,5.485,1.071,5.843,2.144,11.685c.431,2.351.851,4.7,1.294,7.051a3.475,3.475,0,0,0,1.9,2.48,4,4,0,0,0,1.717.352H46.626a5.529,5.529,0,0,0,2.766-.428A3.492,3.492,0,0,0,51.14,47c.05-.265.1-.531.147-.8q.341-1.861.683-3.722l2.12-11.553q.745-4.066,1.492-8.134H55.7a2.864,2.864,0,1,0,.141-5.724ZM39.97,16.375h.486V25.43a.974.974,0,1,0,1.947,0V16.375h1.724c.095,0,.188.006.282.014-.193-.017.11.028.176.046s.111.035.167.051a.214.214,0,0,0,.049.01.2.2,0,0,0,.037.025c.1.055.2.114.3.171l.034.018s0,0,.008.009c.043.036.085.074.126.113s.161.176.184.2c.072.1.133.213.2.32.007.012.02.039.03.059.013.036.027.071.038.106a3.322,3.322,0,0,1,.087.34l0,.02a.158.158,0,0,0,0,.032c0,.051.005.1.006.153s0,.114,0,.172c0,.208,0,.417,0,.626v9.389c0,.095,0,.191,0,.286,0,.03,0,.06,0,.09,0,.01,0,.02-.005.028s-.035.093-.048.136c-.015.026-.03.053-.036.062l-.007.012c-.017.018-.033.037-.05.054l-.066.056c-.027.016-.062.038-.073.043s-.014.011-.017.014l-.025.005-.114.028c-.016,0-.045,0-.077,0H27.766c-.018,0-.039,0-.057,0H27.7q-.041-.009-.081-.021c-.03-.008-.06-.016-.089-.026l-.033-.021-.05-.034c-.037-.034-.072-.068-.105-.105l0-.006v0c.034.025-.038-.1-.042-.075l0-.008c-.023-.1-.043-.246-.041-.123V28.6c0-.027,0-.053,0-.079.022-.739,0-1.481,0-2.22V16.375H39.97Zm5.882,12.241c0-.086.006-.047,0,0ZM19.819,17.68a2.9,2.9,0,0,1,.092-.282c.014-.018.085-.16.11-.2s.062-.1.092-.144l.022-.029c.027-.026.13-.139.154-.164s.286-.229.129-.121a3.106,3.106,0,0,1,.29-.18c.039-.021.078-.039.117-.058h0c.1-.033.193-.064.292-.088.05-.012.1-.021.15-.03H21.3c.062,0,.124-.006.186-.007.1,0,.2,0,.3,0H25.3v5.344c0,2.268-.047,4.542,0,6.81a2.58,2.58,0,0,0,.081.574c.013.055.034.107.05.162a2.616,2.616,0,0,0,.145.363,2.683,2.683,0,0,0,.131.242,2.083,2.083,0,0,0,.128.169,2.3,2.3,0,0,0,.457.456c.045.034.088.069.136.1s.1.086.16.118a2.361,2.361,0,0,0,.635.224c.038.009.078.013.116.02.1.017.208.031.314.038.033,0,.064.011.1.012.069,0,.138,0,.207,0h.63v2.239c0,.2,0,.391,0,.586,0,.053,0,.1,0,.157,0-.17-.023.042-.047.135l-.019.029a.227.227,0,0,0-.025.045c-.036.037-.072.073-.11.109,0,0,0,0-.01,0l-.079.045c-.03.011-.066.024-.078.027s-.055.011-.088.017-.061,0-.046,0h-.017c-.1,0-.192,0-.287,0H20.744c-.134,0-.267,0-.4,0h-.1c-.033-.006-.085-.015-.1-.019a.455.455,0,0,1-.077-.027l-.1-.057-.018-.015-.069-.073c-.011-.017-.031-.044-.04-.059l-.023-.035c-.014-.042-.025-.085-.039-.127a.212.212,0,0,0-.015-.034.174.174,0,0,0,.008-.06c0-.038,0-.077,0-.116,0-.673,0-1.347,0-2.021V23.818c0-1.867.034-3.738,0-5.606v-.146c0-.046,0-.12,0-.159C19.782,17.885,19.809,17.72,19.819,17.68Zm.227,16.669Zm-.075-.045c.072.046.036.028,0,0ZM9.882,20.828,9.7,20.782l-.016-.006c-.032-.016-.064-.033-.1-.051s-.077-.051-.115-.075a1.243,1.243,0,0,0-.119-.119c-.015-.021-.078-.094-.092-.117s-.055-.109-.069-.133c-.019-.059-.036-.119-.055-.178l-.009-.043c0-.044-.006-.088-.006-.131a.468.468,0,0,0,0-.1c0-.014.007-.025.012-.047,0,0,.05-.165.05-.187.022-.043.046-.084.067-.128a.272.272,0,0,0,.025-.069.219.219,0,0,0,.051-.047,1.742,1.742,0,0,1,.2-.187l.055-.026c.008,0,.289-.117.124-.063.046-.015.23-.053.254-.062h7.863q0,.915,0,1.83H10.326c-.079,0-.158,0-.237,0C10.033,20.843,9.886,20.824,9.882,20.828Zm42.836,6.818L50.6,39.209c-.443,2.411-.88,4.824-1.328,7.234-.012.067-.024.135-.038.2-.02.088-.049.171-.072.258l-.009.037-.009.015a2.476,2.476,0,0,1-.218.363c-.029.031-.087.1-.1.109-.044.045-.092.086-.139.128-.016.009-.113.084-.129.094-.074.046-.149.084-.225.125a.4.4,0,0,0-.037.022.44.44,0,0,0-.051.01c-.083.021-.17.045-.252.069l-.048.016H47.9c-.285.007.107,0-.181.007H18.173c-.067,0-.133-.006-.2-.011-.026-.007-.139-.026-.158-.031-.062-.016-.123-.037-.184-.057-.013-.007-.118-.048-.147-.063-.076-.041-.146-.088-.22-.132a.163.163,0,0,0-.042-.021.171.171,0,0,0-.031-.037c-.06-.06-.121-.123-.183-.181a.17.17,0,0,0-.04-.031.151.151,0,0,0-.021-.04,3.418,3.418,0,0,1-.185-.327c-.011-.033-.05-.132-.055-.148-.025-.086-.045-.174-.062-.262-.009-.042-.016-.084-.024-.126-.056-.3-.11-.6-.166-.906q-.349-1.91-.7-3.82-1.047-5.709-2.095-11.419-.687-3.747-1.375-7.494h5.538V33.719a2.708,2.708,0,0,0,.358,1.453,2.533,2.533,0,0,0,2.209,1.178c2.363.01,4.726,0,7.088,0a6.907,6.907,0,0,0,1.047-.045,2.472,2.472,0,0,0,2.014-2.435c.019-.953.008-1.908,0-2.863h8.6c2.035,0,4.07.01,6.1,0a2.521,2.521,0,0,0,1.919-.811,2.707,2.707,0,0,0,.633-1.874V25.046c0-.752,0-1.5.008-2.256h5.8Zm3.993-7.389c-.028.06-.06.118-.093.174-.018.031-.017.035-.014.036-.012.013-.014.013-.037.038-.043.048-.089.093-.137.137-.086.076-.1.084-.032.025a1.734,1.734,0,0,1-.22.121c-.025.007-.072.021-.081.022s-.317.037-.14.03c.162,0-.075,0-.106,0s-.076,0-.113,0c-1.5.006-3,0-4.495,0H47.809c0-.255,0-.509,0-.764,0-.355,0-.71,0-1.066H55.5c.118,0,.236,0,.354,0l.092,0a.245.245,0,0,0,.037,0s0,0,.006.008a1.179,1.179,0,0,0,.206.055.2.2,0,0,0,.04.006.154.154,0,0,0,.035.03c.05.034.1.065.153.1.022.02.063.057.08.074s.048.052.068.074c.039.057.074.116.107.176.01.027.05.115.057.14,0,0,.015.074.026.123s.011.137.01.134a.322.322,0,0,0,.013.078.318.318,0,0,0-.021.068S56.714,20.228,56.711,20.257Z"/></svg>